<?xml version="1.0" encoding="utf-8"?>
<!-- Generator: Adobe Illustrator 24.1.2, SVG Export Plug-In . SVG Version: 6.00 Build 0)  -->
<svg version="1.1" id="Layer_1" xmlns="http://www.w3.org/2000/svg" xmlns:xlink="http://www.w3.org/1999/xlink" x="0px" y="0px"
	 viewBox="0 0 1024 1024" style="enable-background:new 0 0 1024 1024;" xml:space="preserve">
<style type="text/css">
	.st0{fill:#2A2C2B;}
	.st1{fill-rule:evenodd;clip-rule:evenodd;fill:#FFFFFF;}
	.st2{font-family:'Nexa-Bold';}
	.st3{font-size:110.5703px;}
	.st4{fill-rule:evenodd;clip-rule:evenodd;fill:#2A2C2B;}
	.st5{fill:#FFFFFF;}
	.st6{font-family:'Nexa-Light';}
	.st7{font-size:36.3273px;}
</style>
<g>
	<g>
		<rect x="339.9" y="233.7" class="st0" width="344.2" height="344.2"/>
		<g id="XMLID_7_">
			<path id="XMLID_5_" class="st1" d="M522.8,307.4c-36.1-0.2-76.5,19.9-47.3,55.6c30.6,29.8,82.4,25.3,30.4,77.3l-16.2,19.6
				l-26.9,22l-43.4,7.6l0.9,10.8c10.9,0.5,9.5,6.2,34.8-2.2l97.1-80.7c4.2-3.5,7-7.1,9.1-11c16.2-35.8-30-39-58.3-51.2
				c-10-5.9-6.7-14.3-1.8-17.6c4.9-3.3,13.6-4.4,21.2-4.4l43.9,0l29.4-26.2L522.8,307.4z"/>
			<path id="XMLID_4_" class="st1" d="M399.3,369.2l49.9,0l-0.7,95.2c0.9,8.8,3.8,8.7,10.1,8.9c12.5,0.5,36.3-21.1,41.4-25.2
				l-7.6,11c-4.7,5.8-10.9,16.4-36.9,39.3c-32.2,21.7-53,7.7-56.3-27.2V428L399.3,369.2z"/>
			<path id="XMLID_3_" class="st1" d="M424.5,358.3c13.8,0,25-11.2,25-25c0-13.8-11.2-25-25-25c-13.8,0-25,11.2-25,25
				C399.5,347.1,410.8,358.3,424.5,358.3z"/>
			<polygon id="XMLID_2_" class="st1" points="606.7,307.1 575.5,333.3 594.3,333.4 626.1,307.1 			"/>
			<polygon id="XMLID_1_" class="st1" points="638.6,307.1 607,333.4 619,333.4 650.4,307.1 			"/>
		</g>
	</g>
	<text transform="matrix(1 0 0 1 94.2664 705.9542)" class="st2 st3">INTELECTSOFT</text>
	<g>
		<rect x="104" y="726.5" class="st4" width="825.7" height="63.9"/>
		<text transform="matrix(1 0 0 1 117.1395 771.1622)" class="st5 st6 st7">SOLUȚII SOFTWARE RETAIL, HORECA, PECO</text>
	</g>
</g>
</svg>
