<svg id="Layer_5" enable-background="new 0 0 64 64" height="512" viewBox="0 0 64 64" width="512" xmlns="http://www.w3.org/2000/svg"><g><g><g><path d="m11 38h5.21c-.69 1.35-1.11 2.87-1.18 4.47-.96-.3-1.97-.47-3.03-.47-1.82 0-3.53.49-5 1.34v-5.34z" fill="#a0d468"/></g><g><path d="m28 35c0 1.66-1.34 3-3 3h-8v-2c0-1.66-1.34-3-3-3h-3v5h-4-2c-1.66 0-3-1.34-3-3v-6.38c0-2.06 1.56-3.78 3.6-3.98l6.4-.64.37 1.1c.38 1.14 1.44 1.9 2.63 1.9s2.25-.76 2.63-1.9l.37-1.1 6.4.64c2.04.2 3.6 1.92 3.6 3.98v3.56z" fill="#a0d468"/></g><g><path d="m23.35 12.6c-.14.55-.34 1.07-.59 1.55-.24-.1-.49-.15-.76-.15h-2v-1.29c0-.46-.18-.89-.5-1.21s-.75-.5-1.21-.5h-6.58c-.46 0-.89.18-1.21.5s-.5.75-.5 1.21v1.29h-2c-.27 0-.52.05-.76.15-.25-.48-.45-1-.59-1.55l-.44-1.75c-.14-.56-.21-1.14-.21-1.73 0-3.93 3.19-7.12 7.12-7.12h3.76c1.96 0 3.74.8 5.03 2.09s2.09 3.07 2.09 5.03c0 .59-.07 1.17-.21 1.73z" fill="#b27946"/></g><g><path d="m41.81 4c1.18-1.23 2.85-2 4.69-2 1.8 0 3.42.73 4.6 1.9 1.17 1.18 1.9 2.8 1.9 4.6 0 1.64-.38 3.27-1.12 4.74l-.41.82c-.15-.04-.31-.06-.47-.06h-2v-2h-.17c-1.8 0-3.53-.71-4.81-1.98l-.02-.02c-1.28 1.28-3.02 2-4.83 2h-.17v2h-2c-.16 0-.32.02-.47.06l-.93-1.86c-.4-.79-.6-1.66-.6-2.54 0-1.56.64-2.98 1.66-4s2.44-1.66 4-1.66z" fill="#656d78"/></g><g><path d="m37 38.52c-.26.17-.5.35-.74.55-.83-2.18-2.34-4.03-4.26-5.28v-5.21c0-2.04 1.53-3.75 3.56-3.98l5.44-.6.37 1.1c.38 1.14 1.44 1.9 2.63 1.9s2.25-.76 2.63-1.9l.37-1.1 7.88.99c.08.01.16.01.24.01 1.04 0 1.88-.84 1.88-1.88v-6.12h5v7.88c0 1.36-.54 2.66-1.5 3.62s-2.26 1.5-3.62 1.5h-4.88v14.04.02c-.4.05-.79.12-1.17.21-.8-4.14-4.45-7.27-8.83-7.27-1.85 0-3.57.56-5 1.52z" fill="#fcd770"/></g><g><path d="m17 38h8c1.66 0 3-1.34 3-3v-2.82c1.45.27 2.81.82 4 1.61 1.92 1.25 3.43 3.1 4.26 5.28.24-.2.48-.38.74-.55 1.43-.96 3.15-1.52 5-1.52 4.38 0 8.03 3.13 8.83 7.27.38-.09.77-.16 1.17-.21.33-.04.66-.06 1-.06 4.97 0 9 4.03 9 9s-4.03 9-9 9h-41c-5.52 0-10-4.48-10-10 0-3.7 2.01-6.93 5-8.66 1.47-.85 3.18-1.34 5-1.34 1.06 0 2.07.17 3.03.47.07-1.6.49-3.12 1.18-4.47z" fill="#e6e9ed"/></g><g><path d="m17 36v2h-.79-5.21v-5h3c1.66 0 3 1.34 3 3z" fill="#f0d0b4"/></g><g><path d="m19.9 18c.07-.32.1-.66.1-1v-3h2c.27 0 .52.05.76.15s.47.25.65.44c.37.36.59.86.59 1.41 0 1.1-.9 2-2 2h-2.08z" fill="#f0d0b4"/></g><g><path d="m10 17c0 .34.03.68.1 1h-.02-2.08c-.55 0-1.05-.22-1.41-.59-.37-.36-.59-.86-.59-1.41 0-.83.52-1.55 1.24-1.85.24-.1.49-.15.76-.15h2z" fill="#f0d0b4"/></g><g><path d="m20 14v3c0 .34-.03.68-.1 1-.2.98-.68 1.86-1.36 2.54-.36.36-.78.66-1.24.9-.69.36-1.47.56-2.3.56s-1.61-.2-2.3-.56c-1.32-.69-2.3-1.94-2.6-3.44-.07-.32-.1-.66-.1-1v-3-1.29c0-.46.18-.89.5-1.21s.75-.5 1.21-.5h6.58c.46 0 .89.18 1.21.5s.5.75.5 1.21z" fill="#f0d0b4"/></g><g><path d="m12.7 21.44c.69.36 1.47.56 2.3.56s1.61-.2 2.3-.56l.7 2.56-.37 1.1c-.38 1.14-1.44 1.9-2.63 1.9s-2.25-.76-2.63-1.9l-.37-1.1z" fill="#f0d0b4"/></g><g><path d="m62 13.5v3.5h-5v-3.5c0-.69.28-1.32.73-1.77s1.08-.73 1.77-.73c1.38 0 2.5 1.12 2.5 2.5z" fill="#f0d0b4"/></g><g><path d="m51.47 14.06c.36.08.69.27.94.53.37.36.59.86.59 1.41 0 1.1-.9 2-2 2h-2.08-.02c.07-.32.1-.66.1-1v-3h2c.16 0 .32.02.47.06z" fill="#f0d0b4"/></g><g><path d="m41.7 21.44c.69.36 1.47.56 2.3.56s1.61-.2 2.3-.56l.7 2.56-.37 1.1c-.38 1.14-1.44 1.9-2.63 1.9s-2.25-.76-2.63-1.9l-.37-1.1z" fill="#f0d0b4"/></g><g><path d="m49 14v3c0 .34-.03.68-.1 1-.2.98-.68 1.86-1.36 2.54-.36.36-.78.66-1.24.9-.69.36-1.47.56-2.3.56s-1.61-.2-2.3-.56c-1.32-.69-2.3-1.94-2.6-3.44-.07-.32-.1-.66-.1-1v-3-2h.17c1.81 0 3.55-.72 4.83-2l.02.02c1.28 1.27 3.01 1.98 4.81 1.98h.17z" fill="#f0d0b4"/></g><g><path d="m39 17c0 .34.03.68.1 1h-.02-2.08c-.55 0-1.05-.22-1.41-.59-.37-.36-.59-.86-.59-1.41 0-.94.65-1.73 1.53-1.94.15-.04.31-.06.47-.06h2z" fill="#f0d0b4"/></g></g><g><path d="m56.879 31c1.634 0 3.171-.637 4.328-1.793 1.156-1.155 1.793-2.692 1.793-4.328v-11.379c0-1.93-1.57-3.5-3.5-3.5s-3.5 1.57-3.5 3.5v9.617c0 .522-.459.942-.992.876l-7.22-.902-.328-1.197c1.001-.71 1.773-1.718 2.191-2.894h1.349c1.654 0 3-1.346 3-3 0-.974-.474-1.833-1.196-2.381.78-1.586 1.196-3.353 1.196-5.119 0-4.136-3.364-7.5-7.5-7.5-1.962 0-3.744.763-5.082 2h-.755c-3.674 0-6.663 2.989-6.663 6.663 0 1.029.243 2.06.703 2.979l.489.979c-.719.549-1.192 1.406-1.192 2.379 0 1.654 1.346 3 3 3h1.35c.418 1.177 1.19 2.184 2.191 2.894l-.326 1.187-4.768.529c-2.535.283-4.447 2.419-4.447 4.97v3.528c-.64-.297-1.31-.528-2-.708v-2.78c0-2.579-1.936-4.718-4.502-4.976l-5.715-.571-.324-1.179c1.001-.71 1.773-1.718 2.191-2.894h1.35c1.654 0 3-1.346 3-3 0-.875-.383-1.657-.983-2.206.119-.309.222-.625.302-.948l.438-1.753c.161-.642.243-1.305.243-1.97 0-4.479-3.644-8.123-8.123-8.123h-3.754c-4.479 0-8.123 3.644-8.123 8.123 0 .665.082 1.328.243 1.97l.438 1.754c.08.322.183.638.302.948-.6.548-.983 1.33-.983 2.205 0 1.654 1.346 3 3 3h1.35c.418 1.177 1.19 2.184 2.191 2.894l-.324 1.179-5.715.571c-2.566.258-4.502 2.397-4.502 4.976v6.38c0 2.206 1.794 4 4 4h1v3.792c-3.006 1.966-5 5.356-5 9.208 0 6.065 4.935 11 11 11h41c5.514 0 10-4.486 10-10 0-5.512-4.497-10.029-10-9.992v-12.008zm2.621-19c.827 0 1.5.673 1.5 1.5v2.5h-3v-2.5c0-.827.673-1.5 1.5-1.5zm-8.5 5h-1v-2h1c.551 0 1 .448 1 1s-.449 1-1 1zm-14 0c-.551 0-1-.448-1-1s.449-1 1-1h1v2zm2.171-6h-1.171v2h-.882l-.626-1.252c-.322-.644-.492-1.365-.492-2.085 0-2.286 1.657-4.184 3.831-4.579-.527 1.026-.831 2.185-.831 3.416v.5h2v-.5c0-3.032 2.467-5.5 5.5-5.5s5.5 2.468 5.5 5.5c0 1.481-.35 2.964-1.013 4.289l-.105.211h-.882v-2h-1.171c-1.547 0-3.005-.6-4.122-1.707l-.707-.707-.707.707c-1.101 1.101-2.565 1.707-4.122 1.707zm.829 1.957c1.466-.153 2.843-.712 4-1.622 1.157.909 2.535 1.469 4 1.622v4.043c0 2.206-1.794 4-4 4s-4-1.794-4-4zm4 10.043c.564 0 1.108-.084 1.625-.23l.33 1.202-.272.814c-.241.727-.918 1.214-1.683 1.214s-1.442-.487-1.684-1.214l-.272-.815.33-1.201c.518.146 1.062.23 1.626.23zm-11 5.58c0-1.53 1.147-2.813 2.668-2.981l4.638-.515.112.336c.516 1.543 1.955 2.58 3.582 2.58s3.066-1.037 3.581-2.581l.108-.325 7.069.884c1.691.21 3.242-1.15 3.242-2.86v-5.118h3v6.879c0 1.102-.429 2.136-1.207 2.914-.768.767-1.83 1.207-2.914 1.207h-5.879v12.648c-1.636-3.381-5.102-5.648-9-5.648-1.385 0-2.746.295-4 .843v-8.843h-2v8.395c-.806-1.215-1.828-2.267-3-3.115zm-11-11.58h-1v-2h1c.551 0 1 .448 1 1s-.449 1-1 1zm-14 0c-.551 0-1-.448-1-1s.449-1 1-1h1v2zm1.793-6.207c-.511.512-.793 1.191-.793 1.914v.293h-1c-.06 0-.115.014-.174.018-.08-.214-.149-.433-.205-.655l-.439-1.755c-.12-.484-.182-.984-.182-1.485 0-3.376 2.747-6.123 6.123-6.123h3.754c3.376 0 6.123 2.747 6.123 6.123 0 .501-.062 1.001-.183 1.485l-.438 1.754c-.055.222-.125.441-.205.655-.059-.003-.114-.017-.174-.017h-1v-.293c0-.723-.282-1.402-.793-1.914s-1.191-.793-1.914-.793h-6.586c-.723 0-1.403.281-1.914.793zm1.207 1.914c0-.188.074-.366.207-.5.134-.134.311-.207.5-.207h6.586c.189 0 .366.073.5.207.133.134.207.312.207.5v4.293c0 2.206-1.794 4-4 4s-4-1.794-4-4zm4 10.293c.564 0 1.108-.084 1.625-.23l.33 1.201-.272.814c-.241.728-.918 1.215-1.683 1.215s-1.442-.487-1.684-1.214l-.272-.814.33-1.201c.518.145 1.062.229 1.626.229zm-12 12v-6.38c0-1.548 1.162-2.831 2.702-2.985l5.602-.56.115.344c.515 1.544 1.954 2.581 3.581 2.581s3.066-1.037 3.581-2.581l.115-.344 5.602.56c1.54.154 2.702 1.437 2.702 2.985v6.38c0 1.103-.897 2-2 2h-7v-1c0-.732-.212-1.409-.556-2h4.314c.534 0 1.036.208 1.415.586l1.121 1.121 1.414-1.414-1.121-1.121c-.181-.181-.379-.34-.586-.482v-4.69h-2v4.024c-.083-.005-.161-.024-.244-.024h-7.757-5.757c-.083 0-.161.019-.243.024v-4.024h-2v4.69c-.207.141-.405.3-.586.482l-1.121 1.121 1.414 1.414 1.121-1.121c.379-.378.881-.586 1.415-.586h1.757v3h-5c-1.103 0-2-.897-2-2zm11-1c1.103 0 2 .897 2 2v1h-4v-3zm-6 5h6.706c-.254.718-.447 1.455-.56 2.211-.706-.14-1.424-.211-2.146-.211-1.412 0-2.758.277-4 .764zm53 14c0 4.411-3.589 8-8 8h-41c-4.962 0-9-4.037-9-9s4.038-9 9-9c.924 0 1.841.142 2.725.422l1.239.393.062-1.298c.059-1.228.348-2.405.834-3.517h.14 1 7c2.206 0 4-1.794 4-4v-1.536c2.868.91 5.235 3.108 6.329 5.96l.499 1.3 1.073-.888c1.43-1.184 3.241-1.836 5.099-1.836 3.82 0 7.121 2.719 7.849 6.465l.201 1.034 1.022-.254c.654-.163 1.303-.245 1.928-.245 4.411 0 8 3.589 8 8z"/><path d="m7 52h-2c0 3.859 3.14 7 7 7h7v-2h-7c-2.757 0-5-2.243-5-5z"/><path d="m21 57h2v2h-2z"/><path d="m50 57v2h3c3.309 0 6-2.691 6-6h-2c0 2.206-1.794 4-4 4z"/></g></g></svg>