<?xml version="1.0"?>
<svg xmlns="http://www.w3.org/2000/svg" viewBox="0 0 512 512" width="512" height="512"><g id="Fill_out_line" data-name="Fill out line"><path d="M464,216a63.99511,63.99511,0,0,1-64,64H112A64.00273,64.00273,0,0,1,80,160.57007,63.31987,63.31987,0,0,1,96.15,153.98a120.02,120.02,0,0,1,232.77991-34.6499A39.99263,39.99263,0,0,1,392,152c0,.16992-.01.33984-.01.52A63.87516,63.87516,0,0,1,464,216Z" style="fill:#90d2ed"/><rect x="176" y="232" width="288" height="200" rx="18" ry="18" style="fill:#a8c92a"/><path d="M176,400H464v14a18,18,0,0,1-18,18H194a18,18,0,0,1-18-18Z" style="fill:#68be40"/><path d="M288,432h64v30.11147A28.94425,28.94425,0,0,0,368,488H272a28.94425,28.94425,0,0,0,16-25.88852Z" style="fill:#a8c92a"/><path d="M178.04652,488h120a16,16,0,0,0,16-16v0a16,16,0,0,0-16-16h-120Z" style="fill:#cadae6"/><rect x="39.02801" y="456" width="155.0185" height="32" rx="15.99998" ry="15.99998" style="fill:#acb8c2"/><path d="M184.15,456H52.57007A8.00456,8.00456,0,0,1,44.75,449.68018l-20.57007-96A8.00186,8.00186,0,0,1,32,344H163.58008A8.00451,8.00451,0,0,1,171.4,350.31982l20.56995,96A8.00177,8.00177,0,0,1,184.15,456Z" style="fill:#cadae6"/><path d="M184.15,456h-102.1A8.00732,8.00732,0,0,1,74.22,449.68018l-20.57-96A8.00843,8.00843,0,0,1,61.48,344h102.1001A8.00451,8.00451,0,0,1,171.4,350.31982l20.56995,96A8.00177,8.00177,0,0,1,184.15,456Z" style="fill:#90d2ed"/><rect x="424" y="352" width="80" height="136" rx="16" ry="16" style="fill:#90d2ed"/><path d="M488,496H440a24.02718,24.02718,0,0,1-24-24V368a24.02718,24.02718,0,0,1,24-24h48a24.02718,24.02718,0,0,1,24,24V472A24.02718,24.02718,0,0,1,488,496ZM440,360a8.00917,8.00917,0,0,0-8,8V472a8.00917,8.00917,0,0,0,8,8h48a8.00917,8.00917,0,0,0,8-8V368a8.00917,8.00917,0,0,0-8-8Z"/><circle cx="464" cy="464" r="8"/><rect x="456" y="368" width="16" height="16"/><path d="M32,352h-.02l20.59009,96Zm20.57007,96v.12012Q53.785,448,55.03,448ZM32,352h-.02l20.59009,96Zm20.57007,96v.12012Q53.785,448,55.03,448Z"/><path d="M298.05005,448H200.15991a15.90326,15.90326,0,0,0-.35986-3.3501l-20.58008-96A16.08137,16.08137,0,0,0,163.58008,336H32a15.99526,15.99526,0,0,0-15.64,19.3501l20.56994,96a15.48289,15.48289,0,0,0,1.24,3.58008A23.99261,23.99261,0,0,0,55.03,496h243.02a24,24,0,1,0,0-48Zm-134.47-96L184.15,448h-102.1L61.46,352H163.58008ZM31.98,352H45.47a15.83162,15.83162,0,0,0,.36011,3.3501L65.67993,448H55.03q-1.24512,0-2.46.12012V448ZM178.05005,480H55.03a8,8,0,0,1,0-16h123.02a8,8,0,1,1,0,16Zm120,0H200.66992a23.87629,23.87629,0,0,0,0-16h97.38013a8,8,0,1,1,0,16Z"/><path d="M360,440v22.10986a20.82227,20.82227,0,0,0,11.58008,18.73A8.00214,8.00214,0,0,1,368,496H336V480h12.58008A36.923,36.923,0,0,1,344,462.10986V440H216V424H400v16Z"/><path d="M472,328H456V250a10.01146,10.01146,0,0,0-10-10H208a24.02718,24.02718,0,0,0-24,24v56H168V264a40.04552,40.04552,0,0,1,40-40H446a26.02916,26.02916,0,0,1,26,26Z"/><rect x="208" y="392" width="192" height="16"/><path d="M104,160a112.5935,112.5935,0,0,0,.99,14.93994l-15.86,2.12012c-.52-3.87012-.86-7.8-1.02-11.74A56.01926,56.01926,0,0,0,112,272h40v16H112A72.01108,72.01108,0,0,1,88.57007,147.8999,128.16857,128.16857,0,0,1,216,32V48A112.123,112.123,0,0,0,104,160Z"/><path d="M471.43994,207.01l-15.86987,1.98A56.04753,56.04753,0,0,0,400,160a55.3405,55.3405,0,0,0-7.02.46,7.99882,7.99882,0,0,1-8.99-8.05l.01-.3999a31.983,31.983,0,0,0-50.44995-26.13989,8.00483,8.00483,0,0,1-12.15-3.82007A112.307,112.307,0,0,0,216,48V32a128.40517,128.40517,0,0,1,116.96,75.92993A48.01871,48.01871,0,0,1,399.33008,144H400A72.06516,72.06516,0,0,1,471.43994,207.01Z"/></g></svg>
